HIERARCHY
ROOT Hips
{
	OFFSET 0.00 0.00 0.00
	CHANNELS 6 Xposition Yposition Zposition Xrotation Yrotation Zrotation
	JOINT Spine
	{
		OFFSET 0.00000 5.19526 0.00000
		CHANNELS 3 Xrotation Yrotation Zrotation
		JOINT Head
		{
			OFFSET 0.00000 15.65388 0.00000
			CHANNELS 3 Xrotation Yrotation Zrotation
			End Site
			{
				OFFSET 0.00000 4.52755 0.00000
			}
		}
		JOINT LeftShoulder
		{
			OFFSET 0.00000 10.32977 0.00000
			CHANNELS 3 Xrotation Yrotation Zrotation
			JOINT LeftArm
			{
				OFFSET 6.99601 0.00000 0.00000
				CHANNELS 3 Xrotation Yrotation Zrotation
				JOINT LeftForeArm
				{
					OFFSET 10.20930 0.00000 0.00000
					CHANNELS 3 Yrotation Zrotation Xrotation
					JOINT LeftHand
					{
						OFFSET 8.56316 0.00000 0.00000
						CHANNELS 3 Xrotation Yrotation Zrotation
						JOINT LeftHandThumb1
						{
							OFFSET 0.00000 0.00000 0.00000
							CHANNELS 3 Xrotation Zrotation Yrotation
							End Site
							{
								OFFSET 0.00000 0.00000 3.93700
							}
						}
						End Site
						{
							OFFSET 3.93700 0.00000 0.00000
						}
					}
				}
			}
		}
		JOINT RightShoulder
		{
			OFFSET 0.00000 10.32977 0.00000
			CHANNELS 3 Xrotation Yrotation Zrotation
			JOINT RightArm
			{
				OFFSET -6.99601 0.00000 0.00000
				CHANNELS 3 Xrotation Yrotation Zrotation
				JOINT RightForeArm
				{
					OFFSET -10.20930 0.00000 0.00000
					CHANNELS 3 Yrotation Zrotation Xrotation
					JOINT RightHand
					{
						OFFSET -8.56316 0.00000 0.00000
						CHANNELS 3 Xrotation Yrotation Zrotation
						JOINT RightHandThumb1
						{
							OFFSET 0.00000 0.00000 0.00000
							CHANNELS 3 Xrotation Zrotation Yrotation
							End Site
							{
								OFFSET 0.00000 0.00000 3.93700
							}
						}
						End Site
						{
							OFFSET -3.93700 0.00000 0.00000
						}
					}
				}
			}
		}
	}
	JOINT LeftUpLeg
	{
		OFFSET 3.35136 0.00000 0.00000
		CHANNELS 3 Xrotation Yrotation Zrotation
		JOINT LeftLeg
		{
			OFFSET 0.00000 -16.34683 0.00000
			CHANNELS 3 Xrotation Yrotation Zrotation
			JOINT LeftFoot
			{
				OFFSET 0.00000 -13.95979 0.00000
				CHANNELS 3 Xrotation Yrotation Zrotation
				JOINT LeftToeBase
				{
					OFFSET 0.00000 -1.33694 4.98954
					CHANNELS 3 Xrotation Yrotation Zrotation
					End Site
					{
						OFFSET 0.00000 0.00000 2.95275
					}
				}
			}
		}
	}
	JOINT RightUpLeg
	{
		OFFSET -3.35136 0.00000 0.00000
		CHANNELS 3 Xrotation Yrotation Zrotation
		JOINT RightLeg
		{
			OFFSET 0.00000 -16.34683 0.00000
			CHANNELS 3 Xrotation Yrotation Zrotation
			JOINT RightFoot
			{
				OFFSET 0.00000 -13.95979 0.00000
				CHANNELS 3 Xrotation Yrotation Zrotation
				JOINT RightToeBase
				{
					OFFSET 0.00000 -1.33694 4.98954
					CHANNELS 3 Xrotation Yrotation Zrotation
					End Site
					{
						OFFSET 0.00000 0.00000 2.95275
					}
				}
			}
		}
	}
}
MOTION
Frames: 13
Frame Time: 0.008333
 -3.0616 32.0046 -4.3428 -1.8114 42.6330 -7.4357 7.4138 -10.2715 2.9788 5.8282 1.1302 9.6654 5.0117 15.3244 20.0332 -39.2759 0.8878 -57.4877 -71.2781 -0.0000 -20.2901 -1.2986 5.7873 12.6695 33.1476 -0.0000 26.2537 1.2636 -12.4855 -10.3911 -4.4638 36.9897 81.9117 28.1717 0.0000 25.4460 2.8081 -15.2365 10.5723 32.8623 0.0000 -24.3270 -6.8729 -14.2768 2.3220 28.0813 -0.0000 -0.0000 -21.4973 11.0206 -7.5444 9.5573 -0.0000 -0.0000 -73.4658 -6.4675 9.8241 70.5094 0.0000 0.0000 1.8868 -4.7971 23.8932 8.0232 0.0000 0.0000
 -3.0611 31.9900 -4.3484 -2.0720 42.6941 -7.1609 7.5874 -10.2592 2.9472 5.8578 1.2194 9.6293 4.9195 15.2277 20.0798 -39.1701 0.5377 -57.3997 -71.1459 -0.0000 -20.3110 -1.2826 5.8173 12.4564 33.1476 -0.0000 26.2537 1.3473 -12.5372 -10.3736 -4.4788 37.0902 81.8902 28.2550 0.0000 25.5100 2.7867 -15.1634 10.5413 32.8623 0.0000 -24.3270 -6.7480 -14.2944 2.1906 28.1498 -0.0000 0.0000 -21.5668 11.0422 -7.4730 9.5286 0.0000 0.0000 -73.3320 -6.6617 9.7925 66.4562 -0.0000 -0.0000 1.5093 -4.1130 25.4690 8.1494 0.0000 0.0000
 -3.0624 31.9768 -4.3548 -2.3416 42.7566 -6.8877 7.8070 -10.2628 2.9158 5.8151 1.3198 9.6386 4.8480 15.2053 20.1318 -39.1273 0.1688 -57.3410 -70.9976 -0.0000 -20.2879 -1.2690 5.8015 12.3604 33.1476 -0.0000 26.2537 1.3717 -12.5532 -10.3404 -4.4278 37.1904 81.8448 28.3330 0.0000 25.4810 2.8041 -15.1763 10.5974 32.8623 0.0000 -24.3270 -6.6177 -14.2922 2.0746 28.2043 -0.0000 -0.0000 -21.6197 11.0822 -7.4933 9.8752 0.0000 0.0000 -73.1835 -6.7951 9.7797 62.3432 0.0000 -0.0000 1.2448 -3.4033 27.0395 7.9662 -0.0000 0.0000
 -3.0640 31.9655 -4.3595 -2.6150 42.8229 -6.6286 8.0411 -10.2574 2.9114 5.7716 1.4057 9.6205 4.8111 15.1628 20.1272 -39.0970 -0.2464 -57.1901 -70.8819 -0.0000 -20.3454 -1.2689 5.8590 12.2431 33.1476 -0.0000 26.2537 1.3934 -12.5860 -10.2872 -4.4079 37.3057 81.8055 28.2501 0.0000 25.7169 2.7135 -14.7764 10.5272 32.8623 0.0000 -24.3270 -6.4719 -14.2697 1.9851 28.2636 0.0000 -0.0000 -21.6951 11.1024 -7.4894 9.6638 -0.0000 0.0000 -73.0155 -6.8110 9.7940 58.1418 0.0000 -0.0000 1.0252 -2.7713 28.7582 7.8151 0.0000 0.0000
 -3.0649 31.9548 -4.3645 -2.9270 42.8858 -6.3314 8.3127 -10.2487 2.8884 5.7276 1.4878 9.6232 4.7917 15.1592 20.1817 -39.1333 -0.5896 -57.1347 -70.7025 -0.0000 -20.3916 -1.2488 5.8557 12.0610 33.1476 -0.0000 26.2537 1.4663 -12.6144 -10.2529 -4.3722 37.5689 81.7504 28.3490 0.0000 25.6645 2.7574 -15.0127 10.5329 32.8623 0.0000 -24.3270 -6.2944 -14.1789 1.8835 28.2913 -0.0000 0.0000 -21.7570 11.1309 -7.4410 9.8041 -0.0000 0.0000 -72.8389 -6.7470 9.8267 53.9612 0.0000 -0.0000 1.0619 -2.3317 30.2014 7.2631 -0.0000 0.0000
 -3.0669 31.9441 -4.3687 -3.2491 42.9813 -6.0232 8.6153 -10.2768 2.8610 5.6582 1.5698 9.6337 4.7424 15.1548 20.2616 -39.1439 -0.9043 -57.0920 -70.5285 -0.0000 -20.3594 -1.2340 5.8598 11.9139 33.1476 -0.0000 26.2537 1.4676 -12.6045 -10.2249 -4.2983 37.7847 81.7026 28.3482 0.0000 25.7087 2.7949 -14.9749 10.6987 32.8623 0.0000 -24.3270 -6.1121 -14.1023 1.7926 28.3135 0.0000 -0.0000 -21.8169 11.1070 -7.4749 9.9929 -0.0000 0.0000 -72.6720 -6.5690 9.8419 49.8298 0.0000 0.0000 0.9447 -1.9543 31.0342 6.5297 -0.0000 -0.0000
 -3.0648 31.9332 -4.3699 -3.6179 43.1143 -5.6773 8.9532 -10.3047 2.8384 5.5962 1.6363 9.6372 4.7751 15.1431 20.3126 -39.2118 -1.2390 -57.0085 -70.3494 -0.0000 -20.5434 -1.2153 5.8216 11.8126 33.1476 -0.0000 26.2537 1.4551 -12.6035 -10.2192 -4.2416 37.9232 81.7324 28.2691 0.0000 25.7481 2.7298 -14.8994 10.5057 32.8623 0.0000 -24.3270 -5.8747 -14.0222 1.6988 28.3082 -0.0000 -0.0000 -21.8762 11.0935 -7.4571 9.8416 0.0000 -0.0000 -72.4885 -6.3119 9.8631 45.8278 -0.0000 0.0000 0.6764 -2.0121 31.4230 6.5908 0.0000 0.0000
 -3.0641 31.9221 -4.3710 -3.9941 43.2448 -5.3284 9.3216 -10.3592 2.8179 5.4897 1.6980 9.6452 4.7817 15.1783 20.3635 -39.3011 -1.5593 -56.9379 -70.1540 -0.0000 -20.6663 -1.1944 5.7788 11.6987 33.1476 -0.0000 26.2537 1.4067 -12.5623 -10.2158 -4.1536 37.9914 81.7459 28.2454 0.0000 25.7606 2.7971 -14.7140 10.8883 32.8623 0.0000 -24.3270 -5.6309 -13.9013 1.6207 28.3114 -0.0000 0.0000 -21.9563 11.0492 -7.5948 10.0281 -0.0000 -0.0000 -72.3299 -5.9769 9.8630 41.9585 -0.0000 0.0000 0.3612 -2.2554 31.5908 6.6347 0.0000 -0.0000
 -3.0627 31.9100 -4.3719 -4.3569 43.4116 -4.9541 9.6684 -10.4427 2.7537 5.4223 1.7436 9.6705 4.7672 15.1708 20.4180 -39.3934 -1.8114 -56.8663 -69.9764 -0.0000 -20.7562 -1.2001 5.8838 11.5495 33.1476 -0.0000 26.2537 1.4845 -12.5577 -10.1665 -4.1052 38.3163 81.6926 28.2590 0.0000 25.6505 2.7987 -14.8777 10.7801 32.8623 0.0000 -24.3270 -5.4015 -13.7792 1.5225 28.2822 -0.0000 -0.0000 -22.0373 10.8975 -7.6712 10.2769 -0.0000 0.0000 -72.2772 -5.5049 9.8117 38.3461 0.0000 0.0000 0.1010 -2.8368 31.6140 6.4255 0.0000 -0.0000
 -3.0601 31.8972 -4.3739 -4.7206 43.6014 -4.5905 10.0392 -10.5157 2.7170 5.3034 1.7420 9.6340 4.7603 15.1971 20.4949 -39.5101 -2.1011 -56.8388 -69.7440 -0.0000 -20.9105 -1.1644 5.7917 11.3878 33.1476 -0.0000 26.2537 1.5096 -12.5663 -10.1272 -4.0842 38.5173 81.6690 28.1673 0.0000 25.7481 2.8688 -14.7345 11.1462 32.8623 0.0000 -24.3270 -5.1731 -13.6538 1.4359 28.2640 0.0000 -0.0000 -22.1212 10.7688 -7.8194 10.5389 0.0000 0.0000 -72.2844 -5.0457 9.7137 35.0205 0.0000 0.0000 -0.2038 -3.7264 31.3035 6.1815 -0.0000 -0.0000
 -3.0556 31.8828 -4.3773 -5.0841 43.8140 -4.2030 10.4033 -10.6013 2.6721 5.2284 1.8262 9.6480 4.7099 15.1234 20.5169 -39.5156 -2.3970 -56.6751 -69.5816 -0.0000 -21.1302 -1.1660 5.7516 11.4800 33.1476 -0.0000 26.2537 1.5247 -12.5493 -10.1018 -4.0230 38.6648 81.6461 28.0841 0.0000 25.8423 2.8834 -14.4849 11.3852 32.8623 0.0000 -24.3270 -4.9566 -13.5384 1.3228 28.2598 0.0000 -0.0000 -22.2271 10.6115 -7.9841 10.8950 -0.0000 0.0000 -72.3875 -4.6242 9.5627 32.1104 0.0000 0.0000 -0.7330 -4.9245 30.4366 6.2129 0.0000 -0.0000
 -3.0514 31.8668 -4.3789 -5.4374 44.0523 -3.8167 10.7543 -10.6865 2.6045 5.1536 1.7746 9.6484 4.6791 15.0877 20.5869 -39.6473 -2.6252 -56.6440 -69.3600 -0.0000 -21.2243 -1.1687 5.7587 11.4924 33.1476 -0.0000 26.2537 1.5384 -12.5404 -10.0845 -3.9378 38.8511 81.6319 28.0410 0.0000 25.8364 2.9397 -14.4936 11.5953 32.8623 0.0000 -24.3270 -4.7745 -13.3942 1.2200 28.3005 0.0000 -0.0000 -22.3354 10.3963 -8.2332 11.2567 -0.0000 -0.0000 -72.5896 -4.3029 9.3638 29.6292 0.0000 0.0000 -1.2027 -6.2992 29.5424 5.3523 -0.0000 0.0000
 -3.0471 31.8502 -4.3777 -5.8125 44.3180 -3.4302 11.1250 -10.7711 2.5613 5.0901 1.7278 9.6654 4.6244 15.0251 20.6777 -39.7850 -2.7877 -56.6598 -69.1307 -0.0000 -21.2851 -1.1771 5.7572 11.5754 33.1476 -0.0000 26.2537 1.5766 -12.5329 -10.0344 -3.8476 39.0488 81.5869 27.9579 0.0000 25.8794 2.9437 -14.3027 11.7584 32.8623 0.0000 -24.3270 -4.5813 -13.2821 1.1390 28.3619 0.0000 -0.0000 -22.4625 10.2175 -8.5547 11.6828 0.0000 0.0000 -72.8441 -4.0874 9.1397 27.5240 0.0000 0.0000 -1.5660 -7.8011 28.9330 4.0734 -0.0000 -0.0000
